<?xml version="1.0" encoding="UTF-8"?>
<svg width="296px" height="191px" viewBox="0 0 296 191" version="1.1" xmlns="http://www.w3.org/2000/svg" xmlns:xlink="http://www.w3.org/1999/xlink">
    <!-- Generator: Sketch 52.6 (67491) - http://www.bohemiancoding.com/sketch -->
    <title>Group</title>
    <desc>Created with Sketch.</desc>
    <g id="My-Projects" stroke="none" stroke-width="1" fill="none" fill-rule="evenodd">
        <g id="Error" transform="translate(-363.000000, -319.000000)">
            <g id="Group" transform="translate(365.000000, 319.000000)">
                <path d="M84.1554852,10.1116707 L97.0158618,33.6923384 C98.0735983,35.6317942 97.3588235,38.0614986 95.4193677,39.119235 C94.8318646,39.4396463 94.1733625,39.6075397 93.5041665,39.6075397 L67.7834133,39.6075397 C65.5742743,39.6075397 63.7834133,37.8166787 63.7834133,35.6075397 C63.7834133,34.9383437 63.9513067,34.2798416 64.2717179,33.6923384 L77.1320945,10.1116707 C78.189831,8.17221494 80.6195353,7.4574402 82.5589911,8.51517664 C83.23342,8.88299527 83.7876666,9.43724189 84.1554852,10.1116707 Z M83.6175024,29.2504204 L84.205393,15.6469047 L79.2971899,15.6469047 L79.8850805,29.2504204 L83.6175024,29.2504204 Z M79.1604712,33.4887016 C79.1604712,34.1631841 79.4042838,34.7168895 79.8919165,35.1498344 C80.3795491,35.5827793 80.9879415,35.7992485 81.7171118,35.7992485 C82.4462821,35.7992485 83.0546745,35.5827793 83.5423071,35.1498344 C84.0299397,34.7168895 84.2737524,34.1631841 84.2737524,33.4887016 C84.2737524,32.8142191 84.0299397,32.2605137 83.5423071,31.8275688 C83.0546745,31.3946239 82.4462821,31.1781547 81.7171118,31.1781547 C80.9879415,31.1781547 80.3795491,31.3946239 79.8919165,31.8275688 C79.4042838,32.2605137 79.1604712,32.8142191 79.1604712,33.4887016 Z M102.44841,21.9553174 L108.958881,21.9553174 C110.177513,21.9553174 111.165409,22.9432135 111.165409,24.1618452 C111.165409,25.3804768 110.177513,26.368373 108.958881,26.368373 L102.44841,26.368373 C101.229778,26.368373 100.241882,25.3804768 100.241882,24.1618452 C100.241882,22.9432135 101.229778,21.9553174 102.44841,21.9553174 Z M118.726607,21.9553174 L125.237078,21.9553174 C126.45571,21.9553174 127.443606,22.9432135 127.443606,24.1618452 C127.443606,25.3804768 126.45571,26.368373 125.237078,26.368373 L118.726607,26.368373 C117.507975,26.368373 116.520079,25.3804768 116.520079,24.1618452 C116.520079,22.9432135 117.507975,21.9553174 118.726607,21.9553174 Z M135.004804,21.9553174 L141.515275,21.9553174 C142.733907,21.9553174 143.721803,22.9432135 143.721803,24.1618452 C143.721803,25.3804768 142.733907,26.368373 141.515275,26.368373 L135.004804,26.368373 C133.786172,26.368373 132.798276,25.3804768 132.798276,24.1618452 C132.798276,22.9432135 133.786172,21.9553174 135.004804,21.9553174 Z M151.283001,21.9553174 L157.793472,21.9553174 C159.012104,21.9553174 160,22.9432135 160,24.1618452 C160,25.3804768 159.012104,26.368373 157.793472,26.368373 L151.283001,26.368373 C150.064369,26.368373 149.076473,25.3804768 149.076473,24.1618452 C149.076473,22.9432135 150.064369,21.9553174 151.283001,21.9553174 Z M82.2501909,44.3782472 L82.2501909,50.597745 C82.2501909,51.8398121 81.2432966,52.8467064 80.0012295,52.8467064 C78.7591624,52.8467064 77.752268,51.8398121 77.752268,50.597745 L77.752268,44.3782472 C77.752268,43.1361801 78.7591624,42.1292857 80.0012295,42.1292857 C81.2432966,42.1292857 82.2501909,43.1361801 82.2501909,44.3782472 Z M82.2501909,59.5315407 L82.2501909,65.7510386 C82.2501909,66.9931057 81.2432966,68 80.0012295,68 C78.7591624,68 77.752268,66.9931057 77.752268,65.7510386 L77.752268,59.5315407 C77.752268,58.2894736 78.7591624,57.2825793 80.0012295,57.2825793 C81.2432966,57.2825793 82.2501909,58.2894736 82.2501909,59.5315407 Z" id="Combined-Shape" fill="#5A329F"></path>
                <path d="M174,2 C171.790861,2 170,3.790861 170,6 L170,27 C170,29.209139 171.790861,31 174,31 L288,31 C290.209139,31 292,29.209139 292,27 L292,6 C292,3.790861 290.209139,2 288,2 L174,2 Z M186,24.2115385 C182.060844,24.2115385 178.857143,21.04891 178.857143,17.1346154 C178.857143,13.2203208 182.060844,10.0576923 186,10.0576923 C189.939156,10.0576923 193.142857,13.2203208 193.142857,17.1346154 C193.142857,21.04891 189.939156,24.2115385 186,24.2115385 Z M240.321429,10.0576923 C242.313599,10.0576923 243.928571,11.6726652 243.928571,13.6648352 L243.928571,20.6043956 C243.928571,22.5965656 242.313599,24.2115385 240.321429,24.2115385 C238.329259,24.2115385 236.714286,22.5965656 236.714286,20.6043956 L236.714286,13.6648352 C236.714286,11.6726652 238.329259,10.0576923 240.321429,10.0576923 Z M269.25,10.0576923 C271.24217,10.0576923 272.857143,11.6726652 272.857143,13.6648352 L272.857143,20.6043956 C272.857143,22.5965656 271.24217,24.2115385 269.25,24.2115385 C267.25783,24.2115385 265.642857,22.5965656 265.642857,20.6043956 L265.642857,13.6648352 C265.642857,11.6726652 267.25783,10.0576923 269.25,10.0576923 Z M249.964286,10.0576923 C251.956456,10.0576923 253.571429,11.6726652 253.571429,13.6648352 L253.571429,20.6043956 C253.571429,22.5965656 251.956456,24.2115385 249.964286,24.2115385 C247.972116,24.2115385 246.357143,22.5965656 246.357143,20.6043956 L246.357143,13.6648352 C246.357143,11.6726652 247.972116,10.0576923 249.964286,10.0576923 Z M259.607143,10.0576923 C261.599313,10.0576923 263.214286,11.6726652 263.214286,13.6648352 L263.214286,20.6043956 C263.214286,22.5965656 261.599313,24.2115385 259.607143,24.2115385 C257.614973,24.2115385 256,22.5965656 256,20.6043956 L256,13.6648352 C256,11.6726652 257.614973,10.0576923 259.607143,10.0576923 Z M278.892857,10.0576923 C280.885027,10.0576923 282.5,11.6726652 282.5,13.6648352 L282.5,20.6043956 C282.5,22.5965656 280.885027,24.2115385 278.892857,24.2115385 C276.900687,24.2115385 275.285714,22.5965656 275.285714,20.6043956 L275.285714,13.6648352 C275.285714,11.6726652 276.900687,10.0576923 278.892857,10.0576923 Z" id="Combined-Shape" stroke="#5A329F" stroke-width="4"></path>
                <path d="M174,33 C171.790861,33 170,34.790861 170,37 L170,58 C170,60.209139 171.790861,62 174,62 L288,62 C290.209139,62 292,60.209139 292,58 L292,37 C292,34.790861 290.209139,33 288,33 L174,33 Z M186,55.2115385 C182.060844,55.2115385 178.857143,52.04891 178.857143,48.1346154 C178.857143,44.2203208 182.060844,41.0576923 186,41.0576923 C189.939156,41.0576923 193.142857,44.2203208 193.142857,48.1346154 C193.142857,52.04891 189.939156,55.2115385 186,55.2115385 Z M240.321429,41.0576923 C242.313599,41.0576923 243.928571,42.6726652 243.928571,44.6648352 L243.928571,51.6043956 C243.928571,53.5965656 242.313599,55.2115385 240.321429,55.2115385 C238.329259,55.2115385 236.714286,53.5965656 236.714286,51.6043956 L236.714286,44.6648352 C236.714286,42.6726652 238.329259,41.0576923 240.321429,41.0576923 Z M269.25,41.0576923 C271.24217,41.0576923 272.857143,42.6726652 272.857143,44.6648352 L272.857143,51.6043956 C272.857143,53.5965656 271.24217,55.2115385 269.25,55.2115385 C267.25783,55.2115385 265.642857,53.5965656 265.642857,51.6043956 L265.642857,44.6648352 C265.642857,42.6726652 267.25783,41.0576923 269.25,41.0576923 Z M249.964286,41.0576923 C251.956456,41.0576923 253.571429,42.6726652 253.571429,44.6648352 L253.571429,51.6043956 C253.571429,53.5965656 251.956456,55.2115385 249.964286,55.2115385 C247.972116,55.2115385 246.357143,53.5965656 246.357143,51.6043956 L246.357143,44.6648352 C246.357143,42.6726652 247.972116,41.0576923 249.964286,41.0576923 Z M259.607143,41.0576923 C261.599313,41.0576923 263.214286,42.6726652 263.214286,44.6648352 L263.214286,51.6043956 C263.214286,53.5965656 261.599313,55.2115385 259.607143,55.2115385 C257.614973,55.2115385 256,53.5965656 256,51.6043956 L256,44.6648352 C256,42.6726652 257.614973,41.0576923 259.607143,41.0576923 Z M278.892857,41.0576923 C280.885027,41.0576923 282.5,42.6726652 282.5,44.6648352 L282.5,51.6043956 C282.5,53.5965656 280.885027,55.2115385 278.892857,55.2115385 C276.900687,55.2115385 275.285714,53.5965656 275.285714,51.6043956 L275.285714,44.6648352 C275.285714,42.6726652 276.900687,41.0576923 278.892857,41.0576923 Z" id="Combined-Shape" stroke="#5A329F" stroke-width="4"></path>
                <path d="M174,65 C171.790861,65 170,66.790861 170,69 L170,90 C170,92.209139 171.790861,94 174,94 L288,94 C290.209139,94 292,92.209139 292,90 L292,69 C292,66.790861 290.209139,65 288,65 L174,65 Z M186,87.2115385 C182.060844,87.2115385 178.857143,84.04891 178.857143,80.1346154 C178.857143,76.2203208 182.060844,73.0576923 186,73.0576923 C189.939156,73.0576923 193.142857,76.2203208 193.142857,80.1346154 C193.142857,84.04891 189.939156,87.2115385 186,87.2115385 Z M240.321429,73.0576923 C242.313599,73.0576923 243.928571,74.6726652 243.928571,76.6648352 L243.928571,83.6043956 C243.928571,85.5965656 242.313599,87.2115385 240.321429,87.2115385 C238.329259,87.2115385 236.714286,85.5965656 236.714286,83.6043956 L236.714286,76.6648352 C236.714286,74.6726652 238.329259,73.0576923 240.321429,73.0576923 Z M269.25,73.0576923 C271.24217,73.0576923 272.857143,74.6726652 272.857143,76.6648352 L272.857143,83.6043956 C272.857143,85.5965656 271.24217,87.2115385 269.25,87.2115385 C267.25783,87.2115385 265.642857,85.5965656 265.642857,83.6043956 L265.642857,76.6648352 C265.642857,74.6726652 267.25783,73.0576923 269.25,73.0576923 Z M249.964286,73.0576923 C251.956456,73.0576923 253.571429,74.6726652 253.571429,76.6648352 L253.571429,83.6043956 C253.571429,85.5965656 251.956456,87.2115385 249.964286,87.2115385 C247.972116,87.2115385 246.357143,85.5965656 246.357143,83.6043956 L246.357143,76.6648352 C246.357143,74.6726652 247.972116,73.0576923 249.964286,73.0576923 Z M259.607143,73.0576923 C261.599313,73.0576923 263.214286,74.6726652 263.214286,76.6648352 L263.214286,83.6043956 C263.214286,85.5965656 261.599313,87.2115385 259.607143,87.2115385 C257.614973,87.2115385 256,85.5965656 256,83.6043956 L256,76.6648352 C256,74.6726652 257.614973,73.0576923 259.607143,73.0576923 Z M278.892857,73.0576923 C280.885027,73.0576923 282.5,74.6726652 282.5,76.6648352 L282.5,83.6043956 C282.5,85.5965656 280.885027,87.2115385 278.892857,87.2115385 C276.900687,87.2115385 275.285714,85.5965656 275.285714,83.6043956 L275.285714,76.6648352 C275.285714,74.6726652 276.900687,73.0576923 278.892857,73.0576923 Z" id="Combined-Shape" stroke="#5A329F" stroke-width="4"></path>
                <path d="M174,97 C171.790861,97 170,98.790861 170,101 L170,122 C170,124.209139 171.790861,126 174,126 L288,126 C290.209139,126 292,124.209139 292,122 L292,101 C292,98.790861 290.209139,97 288,97 L174,97 Z M186,119.211538 C182.060844,119.211538 178.857143,116.04891 178.857143,112.134615 C178.857143,108.220321 182.060844,105.057692 186,105.057692 C189.939156,105.057692 193.142857,108.220321 193.142857,112.134615 C193.142857,116.04891 189.939156,119.211538 186,119.211538 Z M240.321429,105.057692 C242.313599,105.057692 243.928571,106.672665 243.928571,108.664835 L243.928571,115.604396 C243.928571,117.596566 242.313599,119.211538 240.321429,119.211538 C238.329259,119.211538 236.714286,117.596566 236.714286,115.604396 L236.714286,108.664835 C236.714286,106.672665 238.329259,105.057692 240.321429,105.057692 Z M269.25,105.057692 C271.24217,105.057692 272.857143,106.672665 272.857143,108.664835 L272.857143,115.604396 C272.857143,117.596566 271.24217,119.211538 269.25,119.211538 C267.25783,119.211538 265.642857,117.596566 265.642857,115.604396 L265.642857,108.664835 C265.642857,106.672665 267.25783,105.057692 269.25,105.057692 Z M249.964286,105.057692 C251.956456,105.057692 253.571429,106.672665 253.571429,108.664835 L253.571429,115.604396 C253.571429,117.596566 251.956456,119.211538 249.964286,119.211538 C247.972116,119.211538 246.357143,117.596566 246.357143,115.604396 L246.357143,108.664835 C246.357143,106.672665 247.972116,105.057692 249.964286,105.057692 Z M259.607143,105.057692 C261.599313,105.057692 263.214286,106.672665 263.214286,108.664835 L263.214286,115.604396 C263.214286,117.596566 261.599313,119.211538 259.607143,119.211538 C257.614973,119.211538 256,117.596566 256,115.604396 L256,108.664835 C256,106.672665 257.614973,105.057692 259.607143,105.057692 Z M278.892857,105.057692 C280.885027,105.057692 282.5,106.672665 282.5,108.664835 L282.5,115.604396 C282.5,117.596566 280.885027,119.211538 278.892857,119.211538 C276.900687,119.211538 275.285714,117.596566 275.285714,115.604396 L275.285714,108.664835 C275.285714,106.672665 276.900687,105.057692 278.892857,105.057692 Z" id="Combined-Shape" stroke="#5A329F" stroke-width="4"></path>
                <path d="M174,129 C171.790861,129 170,130.790861 170,133 L170,154 C170,156.209139 171.790861,158 174,158 L288,158 C290.209139,158 292,156.209139 292,154 L292,133 C292,130.790861 290.209139,129 288,129 L174,129 Z M186,151.211538 C182.060844,151.211538 178.857143,148.04891 178.857143,144.134615 C178.857143,140.220321 182.060844,137.057692 186,137.057692 C189.939156,137.057692 193.142857,140.220321 193.142857,144.134615 C193.142857,148.04891 189.939156,151.211538 186,151.211538 Z M240.321429,137.057692 C242.313599,137.057692 243.928571,138.672665 243.928571,140.664835 L243.928571,147.604396 C243.928571,149.596566 242.313599,151.211538 240.321429,151.211538 C238.329259,151.211538 236.714286,149.596566 236.714286,147.604396 L236.714286,140.664835 C236.714286,138.672665 238.329259,137.057692 240.321429,137.057692 Z M269.25,137.057692 C271.24217,137.057692 272.857143,138.672665 272.857143,140.664835 L272.857143,147.604396 C272.857143,149.596566 271.24217,151.211538 269.25,151.211538 C267.25783,151.211538 265.642857,149.596566 265.642857,147.604396 L265.642857,140.664835 C265.642857,138.672665 267.25783,137.057692 269.25,137.057692 Z M249.964286,137.057692 C251.956456,137.057692 253.571429,138.672665 253.571429,140.664835 L253.571429,147.604396 C253.571429,149.596566 251.956456,151.211538 249.964286,151.211538 C247.972116,151.211538 246.357143,149.596566 246.357143,147.604396 L246.357143,140.664835 C246.357143,138.672665 247.972116,137.057692 249.964286,137.057692 Z M259.607143,137.057692 C261.599313,137.057692 263.214286,138.672665 263.214286,140.664835 L263.214286,147.604396 C263.214286,149.596566 261.599313,151.211538 259.607143,151.211538 C257.614973,151.211538 256,149.596566 256,147.604396 L256,140.664835 C256,138.672665 257.614973,137.057692 259.607143,137.057692 Z M278.892857,137.057692 C280.885027,137.057692 282.5,138.672665 282.5,140.664835 L282.5,147.604396 C282.5,149.596566 280.885027,151.211538 278.892857,151.211538 C276.900687,151.211538 275.285714,149.596566 275.285714,147.604396 L275.285714,140.664835 C275.285714,138.672665 276.900687,137.057692 278.892857,137.057692 Z" id="Combined-Shape" stroke="#5A329F" stroke-width="4"></path>
                <path d="M174,160 C171.790861,160 170,161.790861 170,164 L170,185 C170,187.209139 171.790861,189 174,189 L288,189 C290.209139,189 292,187.209139 292,185 L292,164 C292,161.790861 290.209139,160 288,160 L174,160 Z M186,182.211538 C182.060844,182.211538 178.857143,179.04891 178.857143,175.134615 C178.857143,171.220321 182.060844,168.057692 186,168.057692 C189.939156,168.057692 193.142857,171.220321 193.142857,175.134615 C193.142857,179.04891 189.939156,182.211538 186,182.211538 Z M240.321429,168.057692 C242.313599,168.057692 243.928571,169.672665 243.928571,171.664835 L243.928571,178.604396 C243.928571,180.596566 242.313599,182.211538 240.321429,182.211538 C238.329259,182.211538 236.714286,180.596566 236.714286,178.604396 L236.714286,171.664835 C236.714286,169.672665 238.329259,168.057692 240.321429,168.057692 Z M269.25,168.057692 C271.24217,168.057692 272.857143,169.672665 272.857143,171.664835 L272.857143,178.604396 C272.857143,180.596566 271.24217,182.211538 269.25,182.211538 C267.25783,182.211538 265.642857,180.596566 265.642857,178.604396 L265.642857,171.664835 C265.642857,169.672665 267.25783,168.057692 269.25,168.057692 Z M249.964286,168.057692 C251.956456,168.057692 253.571429,169.672665 253.571429,171.664835 L253.571429,178.604396 C253.571429,180.596566 251.956456,182.211538 249.964286,182.211538 C247.972116,182.211538 246.357143,180.596566 246.357143,178.604396 L246.357143,171.664835 C246.357143,169.672665 247.972116,168.057692 249.964286,168.057692 Z M259.607143,168.057692 C261.599313,168.057692 263.214286,169.672665 263.214286,171.664835 L263.214286,178.604396 C263.214286,180.596566 261.599313,182.211538 259.607143,182.211538 C257.614973,182.211538 256,180.596566 256,178.604396 L256,171.664835 C256,169.672665 257.614973,168.057692 259.607143,168.057692 Z M278.892857,168.057692 C280.885027,168.057692 282.5,169.672665 282.5,171.664835 L282.5,178.604396 C282.5,180.596566 280.885027,182.211538 278.892857,182.211538 C276.900687,182.211538 275.285714,180.596566 275.285714,178.604396 L275.285714,171.664835 C275.285714,169.672665 276.900687,168.057692 278.892857,168.057692 Z" id="Combined-Shape" stroke="#5A329F" stroke-width="4"></path>
                <path d="M4,67 L144,67 C146.209139,67 148,68.790861 148,71 L148,161.080702 C148,163.279694 146.224945,165.066324 144.026,165.080617 L4.02599951,165.990619 C1.81690717,166.004978 0.0144436284,164.225795 8.44976822e-05,162.016703 C2.81660428e-05,162.008037 8.58449924e-16,161.99937 8.8817842e-16,161.990704 L0,71 C-2.705415e-16,68.790861 1.790861,67 4,67 Z" id="Path-2" stroke="#5A329F" stroke-width="4"></path>
                <path d="M12.0300612,77 L138,77 C140.209139,77 142,78.790861 142,81 L142,149.394742 C142,151.596465 140.220697,153.384239 138.018999,153.394697 L12.0195886,153.993156 C9.8104745,154.003649 8.01112774,152.221314 8.0006351,150.0122 C8.00060247,150.005329 8.00058754,149.998457 8.00059031,149.991586 L8.03006155,81.0000003 C8.03095325,78.7914922 9.82155291,77.0016154 12.0300612,77.0016154 Z" id="Path-3" stroke="#5A329F" stroke-width="4"></path>
                <path d="M68,92.5 L107,92.5" id="Path-4" stroke="#5A329F" stroke-width="4"></path>
                <path d="M69,103.5 L120,103.5" id="Path-4" stroke="#5A329F" stroke-width="4"></path>
                <path d="M69,114.5 L108.365079,114.5" id="Path-4" stroke="#5A329F" stroke-width="4"></path>
                <path d="M69,126.5 L108.365079,126.5" id="Path-4" stroke="#5A329F" stroke-width="4"></path>
                <path d="M69,135.5 L108.365079,135.5" id="Path-4" stroke="#5A329F" stroke-width="4"></path>
                <path d="M65.806718,166 L65.8067085,176.739686 C65.8067085,178.94882 64.0158517,180.739677 61.806718,180.739677 C61.7435363,180.739677 61.6803635,180.73818 61.6172527,180.735187 C53.8724176,180.367929 50,181.10146 50,182.93578 C50,183.430238 50,183.924697 50,184.419155 L50,184.419155 C50,186.607906 51.7591596,188.390209 53.9477233,188.418814 L96.9477233,188.980837 C99.1566736,189.009708 100.970787,187.242406 100.999658,185.033455 C100.999886,185.016031 101,184.998605 101,184.981178 C101,184.299379 101,183.617579 101,182.93578 C101,181.091296 97.1247621,180.359834 89.3742863,180.741393 L89.3742859,180.741386 C87.1678233,180.850011 85.2910739,179.149377 85.1824489,176.942915 C85.1820151,176.934102 85.1816104,176.925289 85.1812349,176.916474 L84.7162008,166 L65.806718,166 Z" id="Path-5" fill="#5A329F"></path>
            </g>
        </g>
    </g>
</svg>